<svg xmlns="http://www.w3.org/2000/svg" x="0px" y="0px" width="50" height="50" viewBox="0 0 48 48">
<path d="M36.5,6h-25C8.468,6,6,8.468,6,11.5v25c0,3.032,2.468,5.5,5.5,5.5h25c3.032,0,5.5-2.468,5.5-5.5v-25	C42,8.468,39.532,6,36.5,6z M18.621,27.504c0.551,0.619,0.494,1.566-0.125,2.117C18.211,29.875,17.854,30,17.501,30	c-0.414,0-0.826-0.17-1.122-0.504l-4-4.5c-0.505-0.568-0.505-1.424,0-1.992l4-4.5c0.551-0.619,1.499-0.675,2.117-0.125	c0.619,0.551,0.676,1.498,0.125,2.117L15.507,24L18.621,27.504z M27.192,16.837l-3.461,15C23.571,32.531,22.954,33,22.271,33	c-0.111,0-0.225-0.013-0.338-0.038c-0.808-0.187-1.311-0.992-1.125-1.799l3.461-15c0.187-0.808,0.989-1.307,1.799-1.125	C26.875,15.225,27.378,16.03,27.192,16.837z M35.621,24.996l-4,4.5C31.325,29.83,30.913,30,30.499,30	c-0.354,0-0.71-0.125-0.995-0.379c-0.619-0.551-0.676-1.498-0.125-2.117L32.493,24l-3.114-3.504	c-0.551-0.619-0.494-1.566,0.125-2.117c0.618-0.552,1.568-0.494,2.117,0.125l4,4.5C36.126,23.572,36.126,24.428,35.621,24.996z"></path>
</svg>